<?xml version="1.0" encoding="iso-8859-1"?>
<!-- Generator: Adobe Illustrator 19.0.0, SVG Export Plug-In . SVG Version: 6.00 Build 0)  -->
<svg version="1.1" width="30px" height="30px" id="Layer_1" xmlns="http://www.w3.org/2000/svg" xmlns:xlink="http://www.w3.org/1999/xlink" x="0px" y="0px"
	 viewBox="0 0 512 512" style="enable-background:new 0 0 512 512;" xml:space="preserve">
<path style="fill:#FEE715FF;" d="M441.379,123.586H70.621c-4.875,0-8.828,3.953-8.828,8.828v141.241h388.414V132.414
	C450.207,127.539,446.254,123.586,441.379,123.586z"/>
<path style="fill:#FEE715FF;" d="M423.724,0H88.276c-4.875,0-8.828,3.953-8.828,8.828v264.828h353.103V8.828
	C432.552,3.953,428.599,0,423.724,0z"/>
<rect x="44.138" y="176.552" style="fill:#101820FF;" width="423.724" height="35.31"/>
<g>
	<path style="fill:#FEE715FF;" d="M35.31,238.345h17.655c4.875,0,8.828-3.953,8.828-8.828v-61.793c0-4.875-3.953-8.828-8.828-8.828
		H35.31c-4.875,0-8.828,3.953-8.828,8.828v61.793C26.483,234.392,30.435,238.345,35.31,238.345z"/>
	<path style="fill:#FEE715FF;" d="M459.034,238.345h17.655c4.875,0,8.828-3.953,8.828-8.828v-61.793c0-4.875-3.953-8.828-8.828-8.828
		h-17.655c-4.875,0-8.828,3.953-8.828,8.828v61.793C450.207,234.392,454.159,238.345,459.034,238.345z"/>
</g>
<path style="fill:#FEE715FF;" d="M485.517,229.517H370.759c-11.114,0-21.58,5.233-28.248,14.124l-5.297,7.062
	c-6.668,8.892-17.134,14.124-28.248,14.124H203.034c-11.114,0-21.58-5.233-28.248-14.124l-5.297-7.062
	c-6.668-8.892-17.134-14.124-28.248-14.124H26.483c-9.751,0-17.655,7.904-17.655,17.655V476.69c0,19.501,15.809,35.31,35.31,35.31
	h423.724c19.501,0,35.31-15.809,35.31-35.31V247.172C503.172,237.421,495.268,229.517,485.517,229.517z"/>
<path style="fill:#FEE715FF;" d="M467.862,485.517H44.138c-4.875,0-8.828-3.953-8.828-8.828V317.793c0-4.875,3.953-8.828,8.828-8.828
	h423.724c4.875,0,8.828,3.953,8.828,8.828V476.69C476.69,481.565,472.737,485.517,467.862,485.517z"/>
<g>
	<circle style="fill:#101820FF;" cx="97.103" cy="344.276" r="13.241"/>
	<circle style="fill:#101820FF;" cx="150.069" cy="344.276" r="13.241"/>
	<circle style="fill:#101820FF;" cx="203.034" cy="344.276" r="13.241"/>
	<circle style="fill:#101820FF;" cx="256" cy="344.276" r="13.241"/>
	<circle style="fill:#101820FF;" cx="308.966" cy="344.276" r="13.241"/>
	<circle style="fill:#101820FF;" cx="361.931" cy="344.276" r="13.241"/>
	<circle style="fill:#101820FF;" cx="414.897" cy="344.276" r="13.241"/>
	<circle style="fill:#101820FF;" cx="97.103" cy="414.897" r="13.241"/>
	<circle style="fill:#101820FF;" cx="150.069" cy="414.897" r="13.241"/>
	<circle style="fill:#101820FF;" cx="203.034" cy="414.897" r="13.241"/>
	<circle style="fill:#101820FF;" cx="256" cy="414.897" r="13.241"/>
	<circle style="fill:#101820FF;" cx="308.966" cy="414.897" r="13.241"/>
	<circle style="fill:#101820FF;" cx="361.931" cy="414.897" r="13.241"/>
	<circle style="fill:#101820FF;" cx="414.897" cy="414.897" r="13.241"/>
	<circle style="fill:#101820FF;" cx="70.621" cy="379.586" r="13.241"/>
	<circle style="fill:#101820FF;" cx="176.552" cy="379.586" r="13.241"/>
	<circle style="fill:#101820FF;" cx="229.517" cy="379.586" r="13.241"/>
	<circle style="fill:#101820FF;" cx="282.483" cy="379.586" r="13.241"/>
	<circle style="fill:#101820FF;" cx="335.448" cy="379.586" r="13.241"/>
	<circle style="fill:#101820FF;" cx="388.414" cy="379.586" r="13.241"/>
	<circle style="fill:#101820FF;" cx="441.379" cy="379.586" r="13.241"/>
	<circle style="fill:#101820FF;" cx="123.586" cy="379.586" r="13.241"/>
	<circle style="fill:#101820FF;" cx="123.586" cy="450.207" r="13.241"/>
	<circle style="fill:#101820FF;" cx="388.414" cy="450.207" r="13.241"/>
	<path style="fill:#101820FF;" d="M335.448,436.966H176.552c-7.314,0-13.241,5.928-13.241,13.241c0,7.313,5.928,13.241,13.241,13.241
		h158.897c7.314,0,13.241-5.929,13.241-13.241C348.69,442.893,342.762,436.966,335.448,436.966z"/>
</g>
<path style="fill:#101820FF;" d="M308.966,35.31H203.034c-4.875,0-8.828,3.948-8.828,8.828v17.655c0,4.879,3.953,8.828,8.828,8.828
	s8.828-3.948,8.828-8.828v-8.828h35.31v79.448h-8.828c-4.875,0-8.828,3.948-8.828,8.828s3.953,8.828,8.828,8.828h35.31
	c4.875,0,8.828-3.948,8.828-8.828s-3.953-8.828-8.828-8.828h-8.828V52.966h35.31v8.828c0,4.879,3.953,8.828,8.828,8.828
	s8.828-3.948,8.828-8.828V44.138C317.793,39.258,313.841,35.31,308.966,35.31z"/>
<g>
</g>
<g>
</g>
<g>
</g>
<g>
</g>
<g>
</g>
<g>
</g>
<g>
</g>
<g>
</g>
<g>
</g>
<g>
</g>
<g>
</g>
<g>
</g>
<g>
</g>
<g>
</g>
<g>
</g>
</svg>
